<svg version="1.2" xmlns="http://www.w3.org/2000/svg" xmlns:xlink="http://www.w3.org/1999/xlink" overflow="visible" preserveAspectRatio="none" viewBox="0 0 16 9.886625" width="16" height="9.886625"><g transform="translate(0, 0)"><defs><path id="path-1659793993482133541" d="M1.8866875000000007 0 C1.8866875000000007 0 8 6.113312500000002 8 6.113312500000002 C8 6.113312500000002 14.1133125 0 14.1133125 0 C14.1133125 0 16 1.8866250000000007 16 1.8866250000000007 C16 1.8866250000000007 8 9.886625 8 9.886625 C8 9.886625 0 1.8866250000000007 0 1.8866250000000007 C0 1.8866250000000007 1.8866875000000007 0 1.8866875000000007 0 Z" vector-effect="non-scaling-stroke"/></defs><g transform="translate(0, 0)"><path d="M1.8866875000000007 0 C1.8866875000000007 0 8 6.113312500000002 8 6.113312500000002 C8 6.113312500000002 14.1133125 0 14.1133125 0 C14.1133125 0 16 1.8866250000000007 16 1.8866250000000007 C16 1.8866250000000007 8 9.886625 8 9.886625 C8 9.886625 0 1.8866250000000007 0 1.8866250000000007 C0 1.8866250000000007 1.8866875000000007 0 1.8866875000000007 0 Z" style="stroke-width: 0; stroke-linecap: butt; stroke-linejoin: miter; fill: rgb(4, 161, 217);" vector-effect="non-scaling-stroke"/></g></g></svg>